<svg width="465" height="103" viewBox="0 0 465 103" fill="none" xmlns="http://www.w3.org/2000/svg">
<path d="M27.642 -8.58307e-06V101.818H0V-8.58307e-06H27.642ZM67.1911 101.818H37.3615L70.9695 -8.58307e-06H108.754L142.362 101.818H112.532L90.2592 28.0398H89.4638L67.1911 101.818ZM61.6229 61.6477H117.702V82.3295H61.6229V61.6477ZM152.168 -8.58307e-06H186.571L210.236 57.6704H211.429L235.094 -8.58307e-06H269.498V101.818H242.452V42.9545H241.657L218.986 101.023H202.679L180.009 42.5568H179.213V101.818H152.168V-8.58307e-06ZM321.774 101.818H282.598V-8.58307e-06H321.376C331.85 -8.58307e-06 340.898 2.03834 348.521 6.11505C356.177 10.1586 362.077 15.9919 366.22 23.6151C370.396 31.205 372.484 40.303 372.484 50.9091C372.484 61.5151 370.413 70.6297 366.27 78.2528C362.127 85.8428 356.26 91.6761 348.67 95.7528C341.08 99.7964 332.115 101.818 321.774 101.818ZM310.24 78.3523H320.779C325.817 78.3523 330.109 77.5402 333.656 75.9162C337.235 74.2921 339.953 71.4915 341.809 67.5142C343.699 63.5369 344.643 58.0019 344.643 50.9091C344.643 43.8163 343.682 38.2812 341.76 34.304C339.87 30.3267 337.086 27.526 333.407 25.902C329.761 24.2779 325.287 23.4659 319.984 23.4659H310.24V78.3523ZM385.273 101.818V-8.58307e-06H412.717V38.7784H413.114C414.109 36.1932 415.567 33.8234 417.489 31.669C419.412 29.4815 421.798 27.7415 424.648 26.4489C427.499 25.1231 430.813 24.4602 434.592 24.4602C439.629 24.4602 444.419 25.8026 448.96 28.4872C453.533 31.1719 457.246 35.3977 460.096 41.1648C462.979 46.9318 464.421 54.4223 464.421 63.6364C464.421 72.4526 463.046 79.7609 460.295 85.5611C457.577 91.3613 453.931 95.6865 449.357 98.5369C444.817 101.387 439.828 102.812 434.393 102.812C430.813 102.812 427.615 102.232 424.798 101.072C422.013 99.8793 419.627 98.2718 417.638 96.25C415.683 94.1951 414.175 91.875 413.114 89.2898H412.518V101.818H385.273ZM412.12 63.6364C412.12 67.3485 412.601 70.5634 413.562 73.2812C414.556 75.9659 415.948 78.054 417.738 79.5454C419.561 81.0038 421.732 81.7329 424.251 81.7329C426.77 81.7329 428.907 81.0204 430.664 79.5952C432.454 78.1368 433.813 76.0653 434.741 73.3807C435.702 70.6629 436.183 67.4148 436.183 63.6364C436.183 59.8579 435.702 56.6264 434.741 53.9418C433.813 51.224 432.454 49.1525 430.664 47.7273C428.907 46.2689 426.77 45.5398 424.251 45.5398C421.732 45.5398 419.561 46.2689 417.738 47.7273C415.948 49.1525 414.556 51.224 413.562 53.9418C412.601 56.6264 412.12 59.8579 412.12 63.6364Z" fill="white"/>
</svg>
