<svg width="332" height="74" viewBox="0 0 332 74" fill="none" xmlns="http://www.w3.org/2000/svg">
<path d="M19.7443 -1.04904e-05V72.7273H0V-1.04904e-05H19.7443ZM47.9936 72.7273H26.6868L50.6925 -1.04904e-05H77.6811L101.687 72.7273H80.38L64.4709 20.0284H63.9027L47.9936 72.7273ZM44.0163 44.0341H84.0732V58.8068H44.0163V44.0341ZM108.691 -1.04904e-05H133.265L150.169 41.1932H151.021L167.924 -1.04904e-05H192.498V72.7273H173.18V30.6818H172.612L156.419 72.1591H144.771L128.578 30.3977H128.01V72.7273H108.691V-1.04904e-05ZM229.838 72.7273H201.855V-1.04904e-05H229.554C237.035 -1.04904e-05 243.498 1.45596 248.944 4.36789C254.412 7.25614 258.626 11.4228 261.586 16.8679C264.569 22.2893 266.06 28.7879 266.06 36.3636C266.06 43.9394 264.58 50.4498 261.621 55.8949C258.662 61.3163 254.471 65.4829 249.05 68.3949C243.629 71.2831 237.225 72.7273 229.838 72.7273ZM221.6 55.9659H229.128C232.727 55.9659 235.792 55.3859 238.326 54.2258C240.882 53.0658 242.824 51.0653 244.15 48.2244C245.499 45.3835 246.174 41.4299 246.174 36.3636C246.174 31.2973 245.487 27.3437 244.114 24.5028C242.765 21.6619 240.776 19.6614 238.148 18.5014C235.544 17.3414 232.348 16.7614 228.56 16.7614H221.6V55.9659ZM275.195 72.7273V-1.04904e-05H294.798V27.6989H295.082C295.792 25.8523 296.834 24.1596 298.207 22.6207C299.58 21.0582 301.284 19.8153 303.32 18.892C305.356 17.9451 307.724 17.4716 310.423 17.4716C314.021 17.4716 317.442 18.4304 320.685 20.348C323.952 22.2656 326.604 25.2841 328.64 29.4034C330.7 33.5227 331.729 38.8731 331.729 45.4545C331.729 51.7519 330.747 56.9721 328.782 61.115C326.841 65.258 324.237 68.3475 320.969 70.3835C317.726 72.4195 314.163 73.4375 310.281 73.4375C307.724 73.4375 305.439 73.0232 303.427 72.1946C301.438 71.3423 299.734 70.1941 298.313 68.75C296.916 67.2822 295.839 65.625 295.082 63.7784H294.656V72.7273H275.195ZM294.371 45.4545C294.371 48.1061 294.715 50.4025 295.401 52.3437C296.112 54.2614 297.106 55.7528 298.384 56.8182C299.686 57.8598 301.237 58.3807 303.036 58.3807C304.835 58.3807 306.362 57.8717 307.617 56.8537C308.896 55.812 309.866 54.3324 310.529 52.4148C311.216 50.4735 311.559 48.1534 311.559 45.4545C311.559 42.7557 311.216 40.4474 310.529 38.5298C309.866 36.5885 308.896 35.1089 307.617 34.0909C306.362 33.0492 304.835 32.5284 303.036 32.5284C301.237 32.5284 299.686 33.0492 298.384 34.0909C297.106 35.1089 296.112 36.5885 295.401 38.5298C294.715 40.4474 294.371 42.7557 294.371 45.4545Z" fill="white"/>
</svg>
